# xmcd CD database file
#
# Track frame offsets:
#	150
#	20501
#	41492
#	64399
#	81652
#	98337
#	118954
#	135026
#	155592
#	175373
#	194380
#	217959
#	231564
#	253286
#	279418
#	297649
#	317324
#	337731
#
# Disc length: 4794 seconds
#
# Revision: 0
# Processed by: cddbd v1.5.2PL0 Copyright (c) Steve Scherf et al.
# Submitted via: CDex 1.70beta1
#
DISCID=0a12b812
DTITLE=Krakatau - 20 Lagu Terbaik
DYEAR=1900
DGENRE=Jazz
TTITLE0=Kau Datang
TTITLE1=Kembali Satu
TTITLE2=Haiti
TTITLE3=Suasana
TTITLE4=Seraut Wajah
TTITLE5=Winter Grays
TTITLE6=Kemelut
TTITLE7=Dirimu Kasih
TTITLE8=Cita Pasti
TTITLE9=Gemilang
TTITLE10=Feels Like Forever
TTITLE11=Imaji
TTITLE12=Perjalanan
TTITLE13=Rasa
TTITLE14=Dunia
TTITLE15=Tiada Abadi
TTITLE16=Pelican
TTITLE17=Senja
EXTD=
EXTT0=
EXTT1=
EXTT2=
EXTT3=
EXTT4=
EXTT5=
EXTT6=
EXTT7=
EXTT8=
EXTT9=
EXTT10=
EXTT11=
EXTT12=
EXTT13=
EXTT14=
EXTT15=
EXTT16=
EXTT17=
PLAYORDER=
